<svg width="1105" height="718" viewBox="0 0 1105 718" fill="none" xmlns="http://www.w3.org/2000/svg">
<g filter="url(#filter0_f_2023_13826)">
<path d="M142 121L313 253" stroke="url(#paint0_radial_2023_13826)" stroke-width="40" stroke-linecap="round"/>
<path d="M832 417L941 501" stroke="url(#paint1_radial_2023_13826)" stroke-width="40" stroke-linecap="round"/>
<path d="M678 514L787 598" stroke="url(#paint2_radial_2023_13826)" stroke-width="40" stroke-linecap="round"/>
<path d="M700 174L871 306" stroke="url(#paint3_radial_2023_13826)" stroke-width="40" stroke-linecap="round"/>
<path d="M362.084 329.523L547.988 369.102C555.745 370.754 558.585 380.346 552.977 385.954L408.752 530.18C403.186 535.746 393.669 532.997 391.928 525.32L350.25 341.515C348.635 334.396 354.945 328.003 362.084 329.523Z" fill="url(#paint4_radial_2023_13826)" fill-opacity="0.5"/>
<path d="M512.084 119.523L697.988 159.102C705.745 160.754 708.585 170.346 702.977 175.954L558.752 320.18C553.186 325.746 543.669 322.997 541.928 315.32L500.25 131.515C498.635 124.396 504.945 118.003 512.084 119.523Z" fill="url(#paint5_radial_2023_13826)" fill-opacity="0.5"/>
<path d="M587 359L662 417" stroke="url(#paint6_radial_2023_13826)" stroke-width="40" stroke-linecap="round"/>
<path d="M120 431L194 489" stroke="url(#paint7_radial_2023_13826)" stroke-width="40" stroke-linecap="round"/>
<path d="M513 151L587 209" stroke="url(#paint8_radial_2023_13826)" stroke-width="40" stroke-linecap="round"/>
<circle cx="961.5" cy="143.5" r="43.5" fill="url(#paint9_radial_2023_13826)" fill-opacity="0.7"/>
</g>
<defs>
<filter id="filter0_f_2023_13826" x="-20" y="0" width="1125" height="720" filterUnits="userSpaceOnUse" color-interpolation-filters="sRGB">
<feFlood flood-opacity="0" result="BackgroundImageFix"/>
<feBlend mode="normal" in="SourceGraphic" in2="BackgroundImageFix" result="shape"/>
<feGaussianBlur stdDeviation="50" result="effect1_foregroundBlur_2023_13826"/>
</filter>
<radialGradient id="paint0_radial_2023_13826" cx="0" cy="0" r="1" gradientUnits="userSpaceOnUse" gradientTransform="translate(227.5 187) rotate(90) scale(66 85.5)">
<stop stop-color="#1E3A8A"/>
<stop offset="1" stop-color="#1E3A8A" stop-opacity="0"/>
</radialGradient>
<radialGradient id="paint1_radial_2023_13826" cx="0" cy="0" r="1" gradientUnits="userSpaceOnUse" gradientTransform="translate(886.5 459) rotate(90) scale(42 54.5)">
<stop stop-color="#1E3A8A"/>
<stop offset="1" stop-color="#1E3A8A" stop-opacity="0"/>
</radialGradient>
<radialGradient id="paint2_radial_2023_13826" cx="0" cy="0" r="1" gradientUnits="userSpaceOnUse" gradientTransform="translate(732.5 556) rotate(90) scale(42 54.5)">
<stop stop-color="#1E3A8A"/>
<stop offset="1" stop-color="#1E3A8A" stop-opacity="0"/>
</radialGradient>
<radialGradient id="paint3_radial_2023_13826" cx="0" cy="0" r="1" gradientUnits="userSpaceOnUse" gradientTransform="translate(824.274 240.029) rotate(63.103) scale(97.0408 120.216)">
<stop stop-color="#93C5FD"/>
<stop offset="1" stop-color="#1E3A8A" stop-opacity="0"/>
</radialGradient>
<radialGradient id="paint4_radial_2023_13826" cx="0" cy="0" r="1" gradientUnits="userSpaceOnUse" gradientTransform="translate(561.889 353.817) rotate(-179.419) scale(151.553 178.937)">
<stop stop-color="#1E3A8A"/>
<stop offset="1" stop-color="#171717"/>
</radialGradient>
<radialGradient id="paint5_radial_2023_13826" cx="0" cy="0" r="1" gradientUnits="userSpaceOnUse" gradientTransform="translate(711.889 143.817) rotate(-179.419) scale(151.553 178.937)">
<stop stop-color="#1E3A8A"/>
<stop offset="1" stop-color="#171717"/>
</radialGradient>
<radialGradient id="paint6_radial_2023_13826" cx="0" cy="0" r="1" gradientUnits="userSpaceOnUse" gradientTransform="translate(641.506 388.013) rotate(63.145) scale(42.6233 52.7459)">
<stop stop-color="#93C5FD"/>
<stop offset="1" stop-color="#1E3A8A" stop-opacity="0"/>
</radialGradient>
<radialGradient id="paint7_radial_2023_13826" cx="0" cy="0" r="1" gradientUnits="userSpaceOnUse" gradientTransform="translate(115.433 438.162) rotate(45.9679) scale(65.6574 77.4926)">
<stop stop-color="#1E3A8A"/>
<stop offset="1" stop-color="#171717"/>
</radialGradient>
<radialGradient id="paint8_radial_2023_13826" cx="0" cy="0" r="1" gradientUnits="userSpaceOnUse" gradientTransform="translate(508.433 158.162) rotate(45.9679) scale(65.6574 77.4926)">
<stop stop-color="#1E3A8A"/>
<stop offset="1" stop-color="#171717"/>
</radialGradient>
<radialGradient id="paint9_radial_2023_13826" cx="0" cy="0" r="1" gradientUnits="userSpaceOnUse" gradientTransform="translate(912.63 110.743) rotate(52.8473) scale(88.8381 101)">
<stop stop-color="#1E3A8A"/>
<stop offset="1" stop-color="#171717"/>
</radialGradient>
</defs>
</svg>
